<?xml version="1.0" encoding="UTF-8" standalone="no"?>
<svg
   xmlns:osb="http://www.openswatchbook.org/uri/2009/osb"
   xmlns:dc="http://purl.org/dc/elements/1.1/"
   xmlns:cc="http://creativecommons.org/ns#"
   xmlns:rdf="http://www.w3.org/1999/02/22-rdf-syntax-ns#"
   xmlns:svg="http://www.w3.org/2000/svg"
   xmlns="http://www.w3.org/2000/svg"
   xmlns:xlink="http://www.w3.org/1999/xlink"
   xmlns:sodipodi="http://sodipodi.sourceforge.net/DTD/sodipodi-0.dtd"
   xmlns:inkscape="http://www.inkscape.org/namespaces/inkscape"
   width="1080px"
   height="1920px"
   viewBox="0 0 1080 1920"
   version="1.1"
   id="SVGRoot"
   sodipodi:docname="Tell_Home.svg"
   inkscape:version="1.0.1 (3bc2e813f5, 2020-09-07)"
   inkscape:export-filename="C:\Users\ASUS\Documents\Kuliah\Semester 113\Interaksi Manusia Komputer\Assignment 2\Design Improve\Tell_Home.png"
   inkscape:export-xdpi="96"
   inkscape:export-ydpi="96">
  <defs
     id="defs833">
    <linearGradient
       id="linearGradient1187"
       osb:paint="solid">
      <stop
         style="stop-color:#000000;stop-opacity:1;"
         offset="0"
         id="stop1185" />
    </linearGradient>
    <linearGradient
       inkscape:collect="always"
       id="linearGradient1177">
      <stop
         style="stop-color:#000000;stop-opacity:1;"
         offset="0"
         id="stop1173" />
      <stop
         style="stop-color:#000000;stop-opacity:0;"
         offset="1"
         id="stop1175" />
    </linearGradient>
    <linearGradient
       id="linearGradient1542"
       osb:paint="solid">
      <stop
         style="stop-color:#000000;stop-opacity:1;"
         offset="0"
         id="stop1540" />
    </linearGradient>
    <filter
       style="color-interpolation-filters:sRGB;"
       inkscape:label="Drop Shadow"
       id="filter1652">
      <feFlood
         flood-opacity="0.498039"
         flood-color="rgb(0,0,0)"
         result="flood"
         id="feFlood1642" />
      <feComposite
         in="flood"
         in2="SourceGraphic"
         operator="in"
         result="composite1"
         id="feComposite1644" />
      <feGaussianBlur
         in="composite1"
         stdDeviation="3"
         result="blur"
         id="feGaussianBlur1646" />
      <feOffset
         dx="0"
         dy="2"
         result="offset"
         id="feOffset1648" />
      <feComposite
         in="SourceGraphic"
         in2="offset"
         operator="over"
         result="fbSourceGraphic"
         id="feComposite1650" />
      <feColorMatrix
         result="fbSourceGraphicAlpha"
         in="fbSourceGraphic"
         values="0 0 0 -1 0 0 0 0 -1 0 0 0 0 -1 0 0 0 0 1 0"
         id="feColorMatrix1654" />
      <feFlood
         id="feFlood1656"
         flood-opacity="0.498039"
         flood-color="rgb(0,0,0)"
         result="flood"
         in="fbSourceGraphic" />
      <feComposite
         in2="fbSourceGraphic"
         id="feComposite1658"
         in="flood"
         operator="in"
         result="composite1" />
      <feGaussianBlur
         id="feGaussianBlur1660"
         in="composite1"
         stdDeviation="3"
         result="blur" />
      <feOffset
         id="feOffset1662"
         dx="0"
         dy="2"
         result="offset" />
      <feComposite
         in2="offset"
         id="feComposite1664"
         in="fbSourceGraphic"
         operator="over"
         result="fbSourceGraphic" />
      <feColorMatrix
         result="fbSourceGraphicAlpha"
         in="fbSourceGraphic"
         values="0 0 0 -1 0 0 0 0 -1 0 0 0 0 -1 0 0 0 0 1 0"
         id="feColorMatrix1666" />
      <feFlood
         id="feFlood1668"
         flood-opacity="0.498039"
         flood-color="rgb(0,0,0)"
         result="flood"
         in="fbSourceGraphic" />
      <feComposite
         in2="fbSourceGraphic"
         id="feComposite1670"
         in="flood"
         operator="in"
         result="composite1" />
      <feGaussianBlur
         id="feGaussianBlur1672"
         in="composite1"
         stdDeviation="3"
         result="blur" />
      <feOffset
         id="feOffset1674"
         dx="0"
         dy="2"
         result="offset" />
      <feComposite
         in2="offset"
         id="feComposite1676"
         in="fbSourceGraphic"
         operator="over"
         result="composite2" />
    </filter>
    <filter
       style="color-interpolation-filters:sRGB"
       inkscape:label="Drop Shadow"
       id="filter1652-6">
      <feFlood
         flood-opacity="0.498039"
         flood-color="rgb(0,0,0)"
         result="flood"
         id="feFlood1642-2" />
      <feComposite
         in="flood"
         in2="SourceGraphic"
         operator="in"
         result="composite1"
         id="feComposite1644-5" />
      <feGaussianBlur
         in="composite1"
         stdDeviation="3"
         result="blur"
         id="feGaussianBlur1646-1" />
      <feOffset
         dx="0"
         dy="2"
         result="offset"
         id="feOffset1648-4" />
      <feComposite
         in="SourceGraphic"
         in2="offset"
         operator="over"
         result="fbSourceGraphic"
         id="feComposite1650-5" />
      <feColorMatrix
         result="fbSourceGraphicAlpha"
         in="fbSourceGraphic"
         values="0 0 0 -1 0 0 0 0 -1 0 0 0 0 -1 0 0 0 0 1 0"
         id="feColorMatrix1654-9" />
      <feFlood
         id="feFlood1656-2"
         flood-opacity="0.498039"
         flood-color="rgb(0,0,0)"
         result="flood"
         in="fbSourceGraphic" />
      <feComposite
         in2="fbSourceGraphic"
         id="feComposite1658-5"
         in="flood"
         operator="in"
         result="composite1" />
      <feGaussianBlur
         id="feGaussianBlur1660-0"
         in="composite1"
         stdDeviation="3"
         result="blur" />
      <feOffset
         id="feOffset1662-5"
         dx="0"
         dy="2"
         result="offset" />
      <feComposite
         in2="offset"
         id="feComposite1664-7"
         in="fbSourceGraphic"
         operator="over"
         result="fbSourceGraphic" />
      <feColorMatrix
         result="fbSourceGraphicAlpha"
         in="fbSourceGraphic"
         values="0 0 0 -1 0 0 0 0 -1 0 0 0 0 -1 0 0 0 0 1 0"
         id="feColorMatrix1666-2" />
      <feFlood
         id="feFlood1668-7"
         flood-opacity="0.498039"
         flood-color="rgb(0,0,0)"
         result="flood"
         in="fbSourceGraphic" />
      <feComposite
         in2="fbSourceGraphic"
         id="feComposite1670-3"
         in="flood"
         operator="in"
         result="composite1" />
      <feGaussianBlur
         id="feGaussianBlur1672-7"
         in="composite1"
         stdDeviation="3"
         result="blur" />
      <feOffset
         id="feOffset1674-5"
         dx="0"
         dy="2"
         result="offset" />
      <feComposite
         in2="offset"
         id="feComposite1676-7"
         in="fbSourceGraphic"
         operator="over"
         result="composite2" />
    </filter>
    <filter
       style="color-interpolation-filters:sRGB"
       inkscape:label="Drop Shadow"
       id="filter1652-6-4">
      <feFlood
         flood-opacity="0.498039"
         flood-color="rgb(0,0,0)"
         result="flood"
         id="feFlood1642-2-7" />
      <feComposite
         in="flood"
         in2="SourceGraphic"
         operator="in"
         result="composite1"
         id="feComposite1644-5-4" />
      <feGaussianBlur
         in="composite1"
         stdDeviation="3"
         result="blur"
         id="feGaussianBlur1646-1-0" />
      <feOffset
         dx="0"
         dy="2"
         result="offset"
         id="feOffset1648-4-6" />
      <feComposite
         in="SourceGraphic"
         in2="offset"
         operator="over"
         result="fbSourceGraphic"
         id="feComposite1650-5-2" />
      <feColorMatrix
         result="fbSourceGraphicAlpha"
         in="fbSourceGraphic"
         values="0 0 0 -1 0 0 0 0 -1 0 0 0 0 -1 0 0 0 0 1 0"
         id="feColorMatrix1654-9-5" />
      <feFlood
         id="feFlood1656-2-4"
         flood-opacity="0.498039"
         flood-color="rgb(0,0,0)"
         result="flood"
         in="fbSourceGraphic" />
      <feComposite
         in2="fbSourceGraphic"
         id="feComposite1658-5-5"
         in="flood"
         operator="in"
         result="composite1" />
      <feGaussianBlur
         id="feGaussianBlur1660-0-7"
         in="composite1"
         stdDeviation="3"
         result="blur" />
      <feOffset
         id="feOffset1662-5-2"
         dx="0"
         dy="2"
         result="offset" />
      <feComposite
         in2="offset"
         id="feComposite1664-7-0"
         in="fbSourceGraphic"
         operator="over"
         result="fbSourceGraphic" />
      <feColorMatrix
         result="fbSourceGraphicAlpha"
         in="fbSourceGraphic"
         values="0 0 0 -1 0 0 0 0 -1 0 0 0 0 -1 0 0 0 0 1 0"
         id="feColorMatrix1666-2-0" />
      <feFlood
         id="feFlood1668-7-7"
         flood-opacity="0.498039"
         flood-color="rgb(0,0,0)"
         result="flood"
         in="fbSourceGraphic" />
      <feComposite
         in2="fbSourceGraphic"
         id="feComposite1670-3-0"
         in="flood"
         operator="in"
         result="composite1" />
      <feGaussianBlur
         id="feGaussianBlur1672-7-0"
         in="composite1"
         stdDeviation="3"
         result="blur" />
      <feOffset
         id="feOffset1674-5-7"
         dx="0"
         dy="2"
         result="offset" />
      <feComposite
         in2="offset"
         id="feComposite1676-7-0"
         in="fbSourceGraphic"
         operator="over"
         result="composite2" />
    </filter>
    <filter
       style="color-interpolation-filters:sRGB"
       inkscape:label="Drop Shadow"
       id="filter1652-2">
      <feFlood
         flood-opacity="0.498039"
         flood-color="rgb(0,0,0)"
         result="flood"
         id="feFlood1642-4" />
      <feComposite
         in="flood"
         in2="SourceGraphic"
         operator="in"
         result="composite1"
         id="feComposite1644-3" />
      <feGaussianBlur
         in="composite1"
         stdDeviation="3"
         result="blur"
         id="feGaussianBlur1646-5" />
      <feOffset
         dx="0"
         dy="2"
         result="offset"
         id="feOffset1648-1" />
      <feComposite
         in="SourceGraphic"
         in2="offset"
         operator="over"
         result="fbSourceGraphic"
         id="feComposite1650-56" />
      <feColorMatrix
         result="fbSourceGraphicAlpha"
         in="fbSourceGraphic"
         values="0 0 0 -1 0 0 0 0 -1 0 0 0 0 -1 0 0 0 0 1 0"
         id="feColorMatrix1654-4" />
      <feFlood
         id="feFlood1656-1"
         flood-opacity="0.498039"
         flood-color="rgb(0,0,0)"
         result="flood"
         in="fbSourceGraphic" />
      <feComposite
         in2="fbSourceGraphic"
         id="feComposite1658-1"
         in="flood"
         operator="in"
         result="composite1" />
      <feGaussianBlur
         id="feGaussianBlur1660-09"
         in="composite1"
         stdDeviation="3"
         result="blur" />
      <feOffset
         id="feOffset1662-7"
         dx="0"
         dy="2"
         result="offset" />
      <feComposite
         in2="offset"
         id="feComposite1664-5"
         in="fbSourceGraphic"
         operator="over"
         result="fbSourceGraphic" />
      <feColorMatrix
         result="fbSourceGraphicAlpha"
         in="fbSourceGraphic"
         values="0 0 0 -1 0 0 0 0 -1 0 0 0 0 -1 0 0 0 0 1 0"
         id="feColorMatrix1666-0" />
      <feFlood
         id="feFlood1668-4"
         flood-opacity="0.498039"
         flood-color="rgb(0,0,0)"
         result="flood"
         in="fbSourceGraphic" />
      <feComposite
         in2="fbSourceGraphic"
         id="feComposite1670-37"
         in="flood"
         operator="in"
         result="composite1" />
      <feGaussianBlur
         id="feGaussianBlur1672-77"
         in="composite1"
         stdDeviation="3"
         result="blur" />
      <feOffset
         id="feOffset1674-3"
         dx="0"
         dy="2"
         result="offset" />
      <feComposite
         in2="offset"
         id="feComposite1676-0"
         in="fbSourceGraphic"
         operator="over"
         result="composite2" />
    </filter>
    <linearGradient
       inkscape:collect="always"
       xlink:href="#linearGradient1177"
       id="linearGradient1179"
       x1="233.58176"
       y1="101.60354"
       x2="471.26391"
       y2="101.60354"
       gradientUnits="userSpaceOnUse" />
  </defs>
  <sodipodi:namedview
     id="base"
     pagecolor="#ffffff"
     bordercolor="#666666"
     borderopacity="1.0"
     inkscape:pageopacity="0.0"
     inkscape:pageshadow="2"
     inkscape:zoom="0.35355339"
     inkscape:cx="506.10159"
     inkscape:cy="1093.4931"
     inkscape:document-units="px"
     inkscape:current-layer="layer2"
     inkscape:document-rotation="0"
     showgrid="false"
     inkscape:window-width="1304"
     inkscape:window-height="745"
     inkscape:window-x="54"
     inkscape:window-y="-8"
     inkscape:window-maximized="1"
     showguides="false" />
  <metadata
     id="metadata836">
    <rdf:RDF>
      <cc:Work
         rdf:about="">
        <dc:format>image/svg+xml</dc:format>
        <dc:type
           rdf:resource="http://purl.org/dc/dcmitype/StillImage" />
        <dc:title />
      </cc:Work>
    </rdf:RDF>
  </metadata>
  <g
     inkscape:label="Layer 1"
     inkscape:groupmode="layer"
     id="layer1">
    <rect
       style="fill:#ffffff;fill-opacity:1;stroke:#0179fc;stroke-width:0"
       id="rect1167"
       width="1080"
       height="1920"
       x="1.0101526"
       y="7.4028835" />
  </g>
  <g
     inkscape:groupmode="layer"
     id="layer2"
     inkscape:label="Layer 2">
    <rect
       style="fill:#3038dc;fill-opacity:1;stroke:#0179fc;stroke-width:0"
       id="rect1407"
       width="1080"
       height="1920"
       x="1.0101843"
       y="1.4028835" />
    <rect
       style="fill:#ffffff;fill-opacity:1;stroke:#0179fc;stroke-width:0"
       id="rect1829"
       width="1080"
       height="183.5972"
       x="1.0101304"
       y="1743.8057" />
    <rect
       style="fill:#ffffff;fill-opacity:1;stroke:#0179fc;stroke-width:0"
       id="rect1449"
       width="1080"
       height="1597.6184"
       x="1.0101304"
       y="329.78436"
       rx="99.851143"
       ry="99.851151" />
    <rect
       style="fill:#3038dc;fill-opacity:1;stroke:#000000;stroke-width:0"
       id="rect1516"
       width="1080"
       height="158.14133"
       x="1.0101304"
       y="1769.2615" />
    <g
       style="fill:#ffffff;fill-opacity:1"
       id="g1548"
       transform="matrix(3.8873527,0,0,3.8873527,146.39192,1786.8797)">
      <path
         d="M 0,0 H 24 V 24 H 0 Z"
         fill="none"
         id="path1534" />
      <path
         d="M 20,2 H 4 C 2.9,2 2.01,2.9 2.01,4 L 2,22 6,18 h 14 c 1.1,0 2,-0.9 2,-2 V 4 C 22,2.9 21.1,2 20,2 Z M 7,9 h 10 c 0.55,0 1,0.45 1,1 0,0.55 -0.45,1 -1,1 H 7 C 6.45,11 6,10.55 6,10 6,9.45 6.45,9 7,9 Z m 6,5 H 7 C 6.45,14 6,13.55 6,13 6,12.45 6.45,12 7,12 h 6 c 0.55,0 1,0.45 1,1 0,0.55 -0.45,1 -1,1 z M 17,8 H 7 C 6.45,8 6,7.55 6,7 6,6.45 6.45,6 7,6 h 10 c 0.55,0 1,0.45 1,1 0,0.55 -0.45,1 -1,1 z"
         id="path1536" />
    </g>
    <g
       id="g1572"
       transform="matrix(1.0760715,0,0,1.0760715,-805.30616,135.45845)"
       style="fill:#ffffff;fill-opacity:1">
      <path
         style="fill:#ffffff;fill-opacity:1;stroke:#000000;stroke-width:0"
         d="m 535.4639,1861.7486 c 0,-0.9884 1.75109,-3.5069 3.8913,-5.5968 l 3.8913,-3.7998 0.41513,-14.1531 c 0.35356,-12.0538 0.75926,-14.9331 2.73498,-19.4105 2.60486,-5.9032 7.18952,-10.4343 12.50111,-12.355 2.86396,-1.0356 3.56618,-1.8102 3.56618,-3.9336 0,-1.4543 0.82293,-3.3889 1.82874,-4.2992 3.86053,-3.4937 9.17126,-0.9823 9.17126,4.337 0,2.3269 0.52844,2.9652 2.88274,3.4823 4.22011,0.9269 10.60149,6.8354 13.26112,12.2784 2.03209,4.1588 2.36616,6.5638 2.6945,19.3985 l 0.3748,14.6511 3.89342,3.8018 c 2.14138,2.091 3.89342,4.6105 3.89342,5.5989 0,1.6925 -1.89011,1.7971 -32.5,1.7971 -30.60988,0 -32.5,-0.1046 -32.5,-1.7971 z m 49.80175,-21.5344 c -0.42047,-13.8343 -0.70209,-15.763 -2.88386,-19.75 -6.35753,-11.618 -23.09657,-11.4438 -28.78138,0.2995 -1.89444,3.9134 -2.13651,6.1338 -2.13651,19.5977 v 15.1843 h 17.13386 17.13387 z"
         id="path1566"
         transform="translate(713.31006,-260.32422)" />
      <path
         style="fill:#ffffff;fill-opacity:1;stroke:#000000;stroke-width:0"
         d="m 562.91845,1873.0911 c -3.87911,-3.8791 -3.13947,-4.5454 5.04545,-4.5454 8.2626,0 9.2973,0.9629 5.18555,4.8256 -3.07017,2.8843 -7.17904,2.7718 -10.231,-0.2802 z"
         id="path1568"
         transform="translate(713.31006,-260.32422)" />
    </g>
    <g
       style="fill:#ffffff;fill-opacity:1"
       id="g1588"
       transform="matrix(4.1819805,0,0,4.1819805,918.55254,1789.708)">
      <path
         d="M 0,0 H 24 V 24 H 0 Z"
         fill="none"
         id="path1574" />
      <path
         d="m 19.43,12.98 c 0.04,-0.32 0.07,-0.64 0.07,-0.98 0,-0.34 -0.03,-0.66 -0.07,-0.98 l 2.11,-1.65 c 0.19,-0.15 0.24,-0.42 0.12,-0.64 l -2,-3.46 C 19.54,5.05 19.27,4.97 19.05,5.05 l -2.49,1 C 16.04,5.65 15.48,5.32 14.87,5.07 L 14.49,2.42 C 14.46,2.18 14.25,2 14,2 H 10 C 9.75,2 9.54,2.18 9.51,2.42 L 9.13,5.07 C 8.52,5.32 7.96,5.66 7.44,6.05 l -2.49,-1 C 4.72,4.96 4.46,5.05 4.34,5.27 l -2,3.46 C 2.21,8.95 2.27,9.22 2.46,9.37 l 2.11,1.65 C 4.53,11.34 4.5,11.67 4.5,12 c 0,0.33 0.03,0.66 0.07,0.98 l -2.11,1.65 c -0.19,0.15 -0.24,0.42 -0.12,0.64 l 2,3.46 c 0.12,0.22 0.39,0.3 0.61,0.22 l 2.49,-1 c 0.52,0.4 1.08,0.73 1.69,0.98 l 0.38,2.65 C 9.54,21.82 9.75,22 10,22 h 4 c 0.25,0 0.46,-0.18 0.49,-0.42 l 0.38,-2.65 c 0.61,-0.25 1.17,-0.59 1.69,-0.98 l 2.49,1 c 0.23,0.09 0.49,0 0.61,-0.22 l 2,-3.46 c 0.12,-0.22 0.07,-0.49 -0.12,-0.64 z M 12,15.5 c -1.93,0 -3.5,-1.57 -3.5,-3.5 0,-1.93 1.57,-3.5 3.5,-3.5 1.93,0 3.5,1.57 3.5,3.5 0,1.93 -1.57,3.5 -3.5,3.5 z"
         id="path1576" />
    </g>
    <text
       xml:space="preserve"
       style="font-size:36.2644px;line-height:1.25;font-family:Calibri;-inkscape-font-specification:Calibri;fill:#ffffff;fill-opacity:1;stroke-width:0.679956"
       x="162.12592"
       y="1866.9137"
       id="text1592"
       transform="scale(0.98214396,1.0181807)"><tspan
         sodipodi:role="line"
         id="tspan1590"
         x="162.12592"
         y="1866.9137"
         style="stroke-width:0.679956">Chat</tspan></text>
    <text
       xml:space="preserve"
       style="font-size:36.2644px;line-height:1.25;font-family:Calibri;-inkscape-font-specification:Calibri;fill:#ffffff;fill-opacity:1;stroke-width:0.679956"
       x="503.02335"
       y="1871.9841"
       id="text1592-6"
       transform="scale(0.98214394,1.0181807)"><tspan
         sodipodi:role="line"
         id="tspan1590-8"
         x="503.02335"
         y="1871.9841"
         style="stroke-width:0.679956">Notification</tspan></text>
    <text
       xml:space="preserve"
       style="font-size:36.2644px;line-height:1.25;font-family:Calibri;-inkscape-font-specification:Calibri;fill:#ffffff;fill-opacity:1;stroke-width:0.679956"
       x="937.88055"
       y="1874.762"
       id="text1592-9"
       transform="scale(0.98214394,1.0181807)"><tspan
         sodipodi:role="line"
         id="tspan1590-6"
         x="937.88055"
         y="1874.762"
         style="stroke-width:0.679956">Setting</tspan></text>
    <rect
       style="fill:#ffffff;fill-opacity:1;stroke:#0179fc;stroke-width:0;filter:url(#filter1652-2)"
       id="rect1538"
       width="400"
       height="400"
       x="93.086685"
       y="550.49268"
       rx="50"
       ry="50" />
    <rect
       style="fill:#ffffff;fill-opacity:1;stroke:#0179fc;stroke-width:0;filter:url(#filter1652-6-4)"
       id="rect1538-3"
       width="400"
       height="400"
       x="587.37244"
       y="544.77838"
       rx="50"
       ry="50" />
    <g
       id="g2423">
      <path
         style="fill:#3038dc;fill-opacity:1;stroke:#0179fc;stroke-width:0"
         d="m 175.57767,772.12975 c 0.003,-45.37924 0.39212,-76.13184 0.98939,-78.2784 1.33154,-4.78544 6.38367,-10.69014 11.47706,-13.41384 4.19514,-2.24337 4.20015,-2.24355 70.14788,-2.52423 42.79395,-0.18214 67.30365,0.0831 69.80049,0.75547 5.4151,1.45813 10.13708,4.89485 13.71211,9.97983 l 3.06799,4.3638 0.30284,44.61366 c 0.21305,31.38479 -0.0416,45.85483 -0.85884,48.79945 -1.53674,5.53725 -6.00516,10.8 -11.37846,13.40117 -4.2564,2.06049 -5.65238,2.11101 -58.32929,2.11101 H 220.5403 l -22.48413,22.46748 -22.48413,22.46747 z"
         id="path1763" />
      <path
         style="fill:#3038dc;fill-opacity:1;stroke:#0179fc;stroke-width:0"
         d="m 380.16663,881.7811 -22.18466,-22.20451 -60.14277,-0.28265 c -59.94186,-0.28171 -60.15679,-0.29015 -64.33822,-2.52618 -8.58274,-4.58965 -12.47208,-12.03806 -12.47208,-23.8851 v -6.70133 l 69.44799,-0.0149 c 53.10802,-0.0114 70.01926,-0.30848 71.87599,-1.26269 1.3354,-0.68629 3.38096,-2.53075 4.54569,-4.09879 2.06977,-2.78648 2.12406,-3.92679 2.39929,-50.39744 l 0.28161,-47.54645 7.89704,0.54128 c 11.34404,0.77749 18.01674,4.71168 22.69444,13.38044 2.16358,4.00956 2.18255,4.56468 2.46813,72.22591 0.15828,37.50191 0.15828,74.2134 0,81.58109 l -0.28779,13.39578 z"
         id="path1765" />
      <circle
         style="fill:#ffffff;stroke:#0179fc;stroke-width:0"
         id="path979"
         cx="220.41434"
         cy="737.44379"
         r="10" />
      <circle
         style="fill:#ffffff;stroke:#0179fc;stroke-width:0"
         id="path979-4"
         cx="259.41434"
         cy="737.44379"
         r="10" />
      <circle
         style="fill:#ffffff;stroke:#0179fc;stroke-width:0"
         id="path979-6"
         cx="300.41434"
         cy="737.44379"
         r="10" />
    </g>
    <g
       id="g1063"
       transform="translate(-11.385192,-65.306366)"
       style="fill:#3038dc;fill-opacity:1">
      <path
         style="fill:#3038dc;fill-opacity:1;stroke:#0179fc;stroke-width:0"
         d="m 795.33333,925.23194 c -12.70097,-7.91705 -37.3242,-12.99794 -58.5,-12.0712 -16.6341,0.72797 -29.88417,3.7532 -49.6811,11.34309 -4.53381,1.73821 -4.74619,1.73576 -6.75,-0.0777 -2.0605,-1.86469 -2.0689,-2.21227 -2.0689,-85.6492 V 755 l 2.9879,-2.12757 c 5.20424,-3.70574 17.21344,-8.72055 26.0121,-10.86215 30.97769,-7.53999 67.17684,-3.66926 89.22947,9.54121 l 5.72948,3.4322 5.8204,-3.41125 c 15.42036,-9.03762 32.14285,-12.95776 55.72065,-13.06221 9.19795,-0.0408 19.18846,0.49316 23.5,1.25588 13.76413,2.43489 28.53485,7.85179 36.25,13.29405 l 2.75,1.93984 v 83.36049 c 0,76.36125 -0.13948,83.49996 -1.66126,85.02173 -2.06842,2.06842 -4.21331,1.68309 -15.83874,-2.84542 -22.21677,-8.65419 -48.78006,-9.92502 -73.96943,-3.53882 -10.74002,2.72289 -18.87792,5.56869 -25.75205,9.0054 -3.14682,1.57324 -6.29682,2.81465 -7,2.75869 -0.70319,-0.056 -3.75352,-1.64452 -6.77852,-3.53013 z m 11.19284,-19.3145 c 6.01605,-3.54065 21.13079,-8.82348 33.30716,-11.64135 10.36783,-2.39933 14.04021,-2.77057 27,-2.72937 13.94843,0.0443 28.90779,2.06323 35.75,4.82477 1.65612,0.66842 1.75,-2.83359 1.75,-65.28197 v -65.98827 l -4.59885,-1.15801 c -29.45182,-7.41605 -61.60319,-4.31275 -89.65115,8.65329 l -7.75,3.58268 v 65.8423 c 0,36.21327 0.19928,65.84231 0.44284,65.84231 0.24356,0 1.93106,-0.87587 3.75,-1.94638 z"
         id="path1051" />
      <path
         style="fill:#3038dc;fill-opacity:1;stroke:#0179fc;stroke-width:0"
         d="m 814.99443,807.3244 v -8.81218 l 7.89332,-2.60877 c 16.07237,-5.31197 37.09225,-7.49436 55.10668,-5.72145 16.18816,1.59318 15,0.78134 15,10.24926 0,7.86161 -0.0525,8.03501 -2.25,7.43865 -1.2375,-0.33583 -7.5375,-1.12202 -14,-1.7471 -19.35158,-1.87175 -42.60347,1.24821 -56.41032,7.5692 l -5.33968,2.44458 z"
         id="path1053" />
      <path
         style="fill:#3038dc;fill-opacity:1;stroke:#0179fc;stroke-width:0"
         d="m 814.99443,837.34983 v -8.78735 l 8.75,-2.63985 c 18.30514,-5.5226 34.3852,-7.26686 52.49521,-5.69435 18.03554,1.56604 16.75479,0.78234 16.75479,10.25236 v 8.0166 l -3.25,-0.68306 c -1.7875,-0.37568 -8.12648,-1.0583 -14.08662,-1.51694 -19.33701,-1.48798 -41.97948,1.58491 -55.41338,7.52035 l -5.25,2.31959 z"
         id="path1055" />
      <path
         style="fill:#3038dc;fill-opacity:1;stroke:#0179fc;stroke-width:0"
         d="m 815.2055,867.53627 0.28893,-8.71096 6.5,-2.21101 c 3.575,-1.21606 9.875,-2.95463 14,-3.8635 10.21776,-2.2513 37.22685,-3.10379 48.34301,-1.52585 l 8.65699,1.22886 v 7.96867 7.96867 l -5.75,-0.82196 c -3.1625,-0.45207 -14.075,-0.79068 -24.25,-0.75245 -20.15647,0.0757 -30.60946,1.81601 -41.86846,6.97055 -2.95527,1.35297 -5.56136,2.45995 -5.79131,2.45995 -0.22995,0 -0.28807,-3.91994 -0.12916,-8.71097 z"
         id="path1057" />
    </g>
    <text
       xml:space="preserve"
       style="font-style:normal;font-variant:normal;font-weight:600;font-stretch:semi-condensed;font-size:53.4893px;line-height:1.25;font-family:Bahnschrift;-inkscape-font-specification:'Bahnschrift Semi-Bold Semi-Condensed';fill:#000000;fill-opacity:1;stroke:none;stroke-width:1.33723"
       x="174.56122"
       y="637.00262"
       id="text1067"><tspan
         sodipodi:role="line"
         id="tspan1065"
         x="174.56122"
         y="637.00262"
         style="font-style:normal;font-variant:normal;font-weight:600;font-stretch:semi-condensed;font-family:Bahnschrift;-inkscape-font-specification:'Bahnschrift Semi-Bold Semi-Condensed';stroke-width:1.33723">Fun Corner</tspan></text>
    <text
       xml:space="preserve"
       style="font-style:normal;font-variant:normal;font-weight:600;font-stretch:semi-condensed;font-size:57.4204px;line-height:1.25;font-family:Bahnschrift;-inkscape-font-specification:'Bahnschrift Semi-Bold Semi-Condensed';fill:#000000;fill-opacity:1;stroke:none;stroke-width:1.43551"
       x="711.58514"
       y="632.12372"
       id="text1067-8"><tspan
         sodipodi:role="line"
         id="tspan1065-8"
         x="711.58514"
         y="632.12372"
         style="font-style:normal;font-variant:normal;font-weight:600;font-stretch:semi-condensed;font-family:Bahnschrift;-inkscape-font-specification:'Bahnschrift Semi-Bold Semi-Condensed';stroke-width:1.43551">Stories</tspan></text>
    <text
       xml:space="preserve"
       style="font-size:53.3333px;line-height:1.25;font-family:Calibri;-inkscape-font-specification:Calibri;fill-opacity:1;fill:none;"
       x="229.1026"
       y="115.96551"
       id="text1171"><tspan
         sodipodi:role="line"
         id="tspan1169"
         x="229.1026"
         y="115.96551"
         style="fill-opacity:1;fill:none;">Hi, Tellizen!</tspan></text>
    <text
       xml:space="preserve"
       style="font-size:53.3333px;line-height:1.25;font-family:Calibri;-inkscape-font-specification:Calibri"
       x="319.61227"
       y="127.27922"
       id="text1241"><tspan
         sodipodi:role="line"
         id="tspan1239"
         x="319.61227"
         y="127.27922" /></text>
    <text
       xml:space="preserve"
       style="font-size:111.405px;line-height:1.25;font-family:Calibri;-inkscape-font-specification:Calibri;fill:#ffffff;fill-opacity:1;stroke-width:2.08885"
       x="79.975647"
       y="209.2049"
       id="text1249"><tspan
         sodipodi:role="line"
         id="tspan1247"
         x="79.975647"
         y="209.2049"
         style="fill:#ffffff;fill-opacity:1;stroke-width:2.08885">Hi, Tellizen!</tspan></text>
  </g>
</svg>
