<?xml version="1.0" encoding="UTF-8" standalone="no"?>
<svg
   xmlns:dc="http://purl.org/dc/elements/1.1/"
   xmlns:cc="http://creativecommons.org/ns#"
   xmlns:rdf="http://www.w3.org/1999/02/22-rdf-syntax-ns#"
   xmlns:svg="http://www.w3.org/2000/svg"
   xmlns="http://www.w3.org/2000/svg"
   xmlns:sodipodi="http://sodipodi.sourceforge.net/DTD/sodipodi-0.dtd"
   xmlns:inkscape="http://www.inkscape.org/namespaces/inkscape"
   width="1080px"
   height="1920px"
   viewBox="0 0 1080 1920"
   version="1.1"
   id="SVGRoot"
   sodipodi:docname="Tell_Stories_Selected.svg"
   inkscape:version="1.0.1 (3bc2e813f5, 2020-09-07)"
   inkscape:export-filename="C:\Users\ASUS\Documents\Kuliah\Semester 113\Interaksi Manusia Komputer\Assignment 2\Design Improve\Tell_Stories_Selected.png"
   inkscape:export-xdpi="96"
   inkscape:export-ydpi="96">
  <defs
     id="defs1149">
    <filter
       y="-0.25"
       height="1.5"
       inkscape:menu-tooltip="Darkens the edge with an inner blur and adds a flexible glow"
       inkscape:menu="Shadows and Glows"
       inkscape:label="Dark and Glow"
       style="color-interpolation-filters:sRGB;"
       id="filter1769">
      <feGaussianBlur
         stdDeviation="5"
         result="result6"
         id="feGaussianBlur1759" />
      <feComposite
         result="result8"
         in="SourceGraphic"
         operator="atop"
         in2="result6"
         id="feComposite1761" />
      <feComposite
         result="result9"
         operator="over"
         in2="SourceAlpha"
         in="result8"
         id="feComposite1763" />
      <feColorMatrix
         values="1 0 0 0 0 0 1 0 0 0 0 0 1 0 0 0 0 0 1 0 "
         result="result10"
         id="feColorMatrix1765" />
      <feBlend
         in="result10"
         mode="normal"
         in2="result6"
         id="feBlend1767" />
    </filter>
    <filter
       style="color-interpolation-filters:sRGB;"
       inkscape:label="Drop Shadow"
       id="filter1793">
      <feFlood
         flood-opacity="0.498039"
         flood-color="rgb(0,0,0)"
         result="flood"
         id="feFlood1783" />
      <feComposite
         in="flood"
         in2="SourceGraphic"
         operator="in"
         result="composite1"
         id="feComposite1785" />
      <feGaussianBlur
         in="composite1"
         stdDeviation="3"
         result="blur"
         id="feGaussianBlur1787" />
      <feOffset
         dx="0"
         dy="2"
         result="offset"
         id="feOffset1789" />
      <feComposite
         in="SourceGraphic"
         in2="offset"
         operator="over"
         result="fbSourceGraphic"
         id="feComposite1791" />
      <feColorMatrix
         result="fbSourceGraphicAlpha"
         in="fbSourceGraphic"
         values="0 0 0 -1 0 0 0 0 -1 0 0 0 0 -1 0 0 0 0 1 0"
         id="feColorMatrix1795" />
      <feFlood
         id="feFlood1797"
         flood-opacity="0.498039"
         flood-color="rgb(0,0,0)"
         result="flood"
         in="fbSourceGraphic" />
      <feComposite
         in2="fbSourceGraphic"
         id="feComposite1799"
         in="flood"
         operator="in"
         result="composite1" />
      <feGaussianBlur
         id="feGaussianBlur1801"
         in="composite1"
         stdDeviation="3"
         result="blur" />
      <feOffset
         id="feOffset1803"
         dx="0"
         dy="2"
         result="offset" />
      <feComposite
         in2="offset"
         id="feComposite1805"
         in="fbSourceGraphic"
         operator="over"
         result="composite2" />
    </filter>
  </defs>
  <sodipodi:namedview
     id="base"
     pagecolor="#ffffff"
     bordercolor="#666666"
     borderopacity="1.0"
     inkscape:pageopacity="0.0"
     inkscape:pageshadow="2"
     inkscape:zoom="0.35"
     inkscape:cx="436.46667"
     inkscape:cy="1027.4494"
     inkscape:document-units="px"
     inkscape:current-layer="g1735"
     inkscape:document-rotation="0"
     showgrid="false"
     inkscape:window-width="1304"
     inkscape:window-height="745"
     inkscape:window-x="54"
     inkscape:window-y="-8"
     inkscape:window-maximized="1" />
  <metadata
     id="metadata1152">
    <rdf:RDF>
      <cc:Work
         rdf:about="">
        <dc:format>image/svg+xml</dc:format>
        <dc:type
           rdf:resource="http://purl.org/dc/dcmitype/StillImage" />
        <dc:title />
      </cc:Work>
    </rdf:RDF>
  </metadata>
  <g
     inkscape:label="Layer 1"
     inkscape:groupmode="layer"
     id="layer1">
    <g
       id="g1851"
       transform="translate(-657.17729,-51.126536)"
       style="fill:#000000;fill-opacity:1">
      <g
         id="g1735">
        <rect
           style="opacity:0.999;fill:#ffffff;fill-opacity:1;stroke:#000000;stroke-width:0"
           id="rect1022"
           width="1080"
           height="1920"
           x="662.8916"
           y="53.983677" />
        <text
           xml:space="preserve"
           style="font-style:normal;font-weight:normal;font-size:92.5597px;line-height:1.25;font-family:sans-serif;fill:#000000;fill-opacity:1;stroke:none;stroke-width:2.31399"
           x="741.2619"
           y="334.24335"
           id="text1809"><tspan
             sodipodi:role="line"
             id="tspan1807"
             x="741.2619"
             y="334.24335"
             style="font-style:normal;font-variant:normal;font-weight:bold;font-stretch:normal;font-family:Calibri;-inkscape-font-specification:Calibri;stroke-width:2.31399">newbie h3h3</tspan></text>
        <text
           xml:space="preserve"
           style="font-style:normal;font-weight:normal;font-size:46.2798px;line-height:1.5;font-family:sans-serif;fill:#000000;fill-opacity:1;stroke:none;stroke-width:1.157"
           x="753.95941"
           y="508.11166"
           id="text1813"><tspan
             sodipodi:role="line"
             id="tspan1811"
             x="753.95941"
             y="508.11166"
             style="stroke-width:1.157">How to play with this? Please tell me...</tspan><tspan
             sodipodi:role="line"
             x="753.95941"
             y="577.53137"
             id="tspan1815"
             style="stroke-width:1.157">I'm still new at this</tspan></text>
        <text
           xml:space="preserve"
           style="font-style:normal;font-weight:normal;font-size:30.9175px;line-height:1.25;font-family:sans-serif;fill:#000000;fill-opacity:0.75;stroke:none;stroke-width:0.772937"
           x="1048.2303"
           y="388.91553"
           id="text1819"><tspan
             sodipodi:role="line"
             id="tspan1817"
             x="1048.2303"
             y="388.91553"
             style="fill:#000000;fill-opacity:0.75;stroke-width:0.772937">17 September 2020</tspan></text>
        <g
           id="g1834"
           transform="matrix(1.2642231,0,0,1.2642231,-219.69253,-90.412139)"
           style="fill:#000000;fill-opacity:1">
          <rect
             style="fill:#3038dc;fill-opacity:1;stroke:#000000;stroke-width:0.665719;stroke-miterlimit:4;stroke-dasharray:none;stroke-opacity:1"
             id="rect1971-5"
             width="173.72968"
             height="32.04179"
             x="768.80743"
             y="354.53513"
             rx="16.221478"
             ry="162.21478" />
          <text
             xml:space="preserve"
             style="font-style:normal;font-weight:normal;font-size:24.8637px;line-height:1.25;font-family:sans-serif;opacity:0.999;fill:#000000;fill-opacity:1;stroke:none;stroke-width:0.621594"
             x="784.83344"
             y="378.79672"
             id="text1975-5"><tspan
               sodipodi:role="line"
               id="tspan1973-5"
               x="784.83344"
               y="378.79672"
               style="fill:#ffffff;fill-opacity:1;stroke-width:0.621594">College Life</tspan></text>
        </g>
        <g
           id="g1866"
           style="fill:#000000;fill-opacity:0.75"
           transform="matrix(1.7763022,0,0,1.7763022,-942.85869,-946.61419)">
          <path
             style="fill:#000000;fill-opacity:0.75;stroke:#0179fc;stroke-width:0"
             d="m 1102.1958,747.10924 v -2.41071 h 2.4107 2.4107 v 2.41071 2.41072 h -2.4107 -2.4107 z"
             id="path1856" />
          <path
             style="fill:#000000;fill-opacity:0.75;stroke:#0179fc;stroke-width:0"
             d="m 1099.2962,754.24042 c -1.0189,-0.55284 -1.029,-0.638 -1.029,-8.64903 0,-8.05236 0.01,-8.11035 1.0656,-8.65769 0.2881,-0.14899 0.8492,-0.27088 1.247,-0.27088 h 0.7231 v -0.98215 -0.98214 h 0.8929 0.8928 v 0.98214 0.98215 h 4.1072 4.1071 v -0.98215 -0.98214 h 0.8929 0.8928 v 0.98214 0.98215 h 0.7232 c 0.9841,0 1.7534,0.43601 2.0587,1.16683 0.3731,0.89277 0.3731,14.6307 0,15.52347 -0.4866,1.16476 -0.5082,1.16764 -8.7105,1.15969 -6.1749,-0.006 -7.4545,-0.0503 -7.8638,-0.27239 z m 15.0424,-6.59546 v -5.08929 h -7.1428 -7.1429 v 5.08929 5.08928 h 7.1429 7.1428 z m 0,-8.125 v -1.07143 h -7.1428 -7.1429 v 1.07143 1.07143 h 7.1429 7.1428 z"
             id="path1858" />
        </g>
        <g
           style="fill:#000000;fill-opacity:1"
           id="g1882"
           transform="matrix(4.3333334,0,0,4.3333334,692.60593,86.269371)">
          <path
             d="M 0,0 H 24 V 24 H 0 Z"
             fill="none"
             id="path1868" />
          <path
             d="M 20,11 H 7.83 L 13.42,5.41 12,4 4,12 12,20 13.41,18.59 7.83,13 H 20 Z"
             id="path1870" />
        </g>
        <g
           style="fill:#000000;fill-opacity:1"
           id="g1914"
           transform="matrix(4.0952381,0,0,4.0952381,1586.8915,86.269371)">
          <path
             d="M 0,0 H 24 V 24 H 0 Z"
             fill="none"
             id="path1900" />
          <path
             d="m 12,8 c 1.1,0 2,-0.9 2,-2 0,-1.1 -0.9,-2 -2,-2 -1.1,0 -2,0.9 -2,2 0,1.1 0.9,2 2,2 z m 0,2 c -1.1,0 -2,0.9 -2,2 0,1.1 0.9,2 2,2 1.1,0 2,-0.9 2,-2 0,-1.1 -0.9,-2 -2,-2 z m 0,6 c -1.1,0 -2,0.9 -2,2 0,1.1 0.9,2 2,2 1.1,0 2,-0.9 2,-2 0,-1.1 -0.9,-2 -2,-2 z"
             id="path1902" />
        </g>
        <g
           style="fill:#000000;fill-opacity:1"
           id="g922"
           transform="matrix(3.7380952,0,0,3.7380952,844.03453,629.12651)">
          <path
             d="M 0,0 H 24 V 24 H 0 Z"
             fill="none"
             id="path908" />
          <path
             d="M 16.5,3 C 14.76,3 13.09,3.81 12,5.09 10.91,3.81 9.24,3 7.5,3 4.42,3 2,5.42 2,8.5 c 0,3.78 3.4,6.86 8.55,11.54 L 12,21.35 13.45,20.03 C 18.6,15.36 22,12.28 22,8.5 22,5.42 19.58,3 16.5,3 Z m -4.4,15.55 -0.1,0.1 -0.1,-0.1 C 7.14,14.24 4,11.39 4,8.5 4,6.5 5.5,5 7.5,5 c 1.54,0 3.04,0.99 3.57,2.36 h 1.87 C 13.46,5.99 14.96,5 16.5,5 c 2,0 3.5,1.5 3.5,3.5 0,2.89 -3.14,5.74 -7.9,10.05 z"
             id="path910" />
        </g>
        <g
           style="fill:#000000;fill-opacity:1"
           id="g938"
           transform="matrix(3.6785714,0,0,3.6785714,1066.8916,639.1265)">
          <path
             d="M 0,0 H 24 V 24 H 0 Z"
             fill="none"
             id="path924" />
          <path
             d="M 21.99,4 C 21.99,2.9 21.1,2 20,2 H 4 C 2.9,2 2,2.9 2,4 v 12 c 0,1.1 0.9,2 2,2 h 14 l 4,4 z M 17,14 H 7 C 6.45,14 6,13.55 6,13 6,12.45 6.45,12 7,12 h 10 c 0.55,0 1,0.45 1,1 0,0.55 -0.45,1 -1,1 z m 0,-3 H 7 C 6.45,11 6,10.55 6,10 6,9.45 6.45,9 7,9 h 10 c 0.55,0 1,0.45 1,1 0,0.55 -0.45,1 -1,1 z M 17,8 H 7 C 6.45,8 6,7.55 6,7 6,6.45 6.45,6 7,6 h 10 c 0.55,0 1,0.45 1,1 0,0.55 -0.45,1 -1,1 z"
             id="path926" />
        </g>
        <text
           xml:space="preserve"
           style="font-size:51.1368px;line-height:1.25;font-family:Calibri;-inkscape-font-specification:Calibri;fill:#000000;fill-opacity:1;stroke-width:0.958816"
           x="803.25458"
           y="685.43262"
           id="text942"><tspan
             sodipodi:role="line"
             id="tspan940"
             x="803.25458"
             y="685.43262"
             style="stroke-width:0.958816">0</tspan></text>
        <text
           xml:space="preserve"
           style="font-size:51.0879px;line-height:1.25;font-family:Calibri;-inkscape-font-specification:Calibri;fill:#000000;fill-opacity:1;stroke-width:0.957899"
           x="1021.9396"
           y="689.69794"
           id="text946"><tspan
             sodipodi:role="line"
             id="tspan944"
             x="1021.9396"
             y="689.69794"
             style="stroke-width:0.957899">1</tspan></text>
        <g
           id="g2658"
           inkscape:export-xdpi="96"
           inkscape:export-ydpi="96"
           style="fill:#3038dc;fill-opacity:1">
          <rect
             style="opacity:0.999;fill:#3038dc;fill-opacity:1;stroke:#000000;stroke-width:0"
             id="rect948"
             width="1080"
             height="150"
             x="658.89166"
             y="1669.6979"
             rx="100"
             ry="100" />
          <rect
             style="opacity:0.999;fill:#3038dc;fill-opacity:1;stroke:#000000;stroke-width:0"
             id="rect950"
             width="1080"
             height="80"
             x="658.8916"
             y="1739.6979" />
        </g>
        <text
           xml:space="preserve"
           style="font-size:73.6951px;line-height:1.25;font-family:Calibri;-inkscape-font-specification:Calibri;fill:#ffffff;fill-opacity:1;stroke-width:1.38179"
           x="1026.4987"
           y="1784.7223"
           id="text958"><tspan
             sodipodi:role="line"
             id="tspan956"
             x="1026.4987"
             y="1784.7223"
             style="font-style:normal;font-variant:normal;font-weight:normal;font-stretch:normal;font-family:Bahnschrift;-inkscape-font-specification:Bahnschrift;stroke-width:1.38179">Comments</tspan></text>
        <g
           style="fill:#ffffff;fill-opacity:1"
           id="g974"
           transform="matrix(0,2.0101526,-2.0101526,0,1228.4797,1678.2723)">
          <path
             d="M 0,0 H 24 V 24 H 0 Z"
             fill="none"
             opacity="0.87"
             id="path960" />
          <path
             d="M 16.62,2.99 C 16.13,2.5 15.34,2.5 14.85,2.99 L 6.54,11.3 c -0.39,0.39 -0.39,1.02 0,1.41 l 8.31,8.31 c 0.49,0.49 1.28,0.49 1.77,0 0.49,-0.49 0.49,-1.28 0,-1.77 L 9.38,12 16.63,4.75 C 17.11,4.27 17.11,3.47 16.62,2.99 Z"
             id="path962" />
        </g>
        <rect
           style="opacity:0.999;fill:#ffffff;fill-opacity:1;stroke:#000000;stroke-width:2.07181;stroke-miterlimit:4;stroke-dasharray:none"
           id="rect1241"
           width="886.89252"
           height="82.662064"
           x="692.8916"
           y="1851.3215"
           rx="42.639057"
           ry="41.331032" />
        <text
           xml:space="preserve"
           style="font-size:44.1748px;line-height:1.25;font-family:Calibri;-inkscape-font-specification:Calibri;fill:#000000;fill-opacity:0.5;stroke-width:0.828279"
           x="747.40656"
           y="1905.0193"
           id="text1289"><tspan
             sodipodi:role="line"
             id="tspan1287"
             x="747.40656"
             y="1905.0193"
             style="fill:#000000;fill-opacity:0.5;stroke-width:0.828279">Please comment politely</tspan></text>
        <circle
           style="opacity:0.999;fill:#3038dc;fill-opacity:1;stroke:#000000;stroke-width:0;stroke-miterlimit:4;stroke-dasharray:none"
           id="path1267"
           cx="1650.0344"
           cy="1891.1266"
           r="43.781513" />
        <path
           style="opacity:0.999;fill:#dca812;fill-opacity:1;stroke:#000000;stroke-width:0;stroke-miterlimit:4;stroke-dasharray:none"
           d="m 1627.2279,1906.2384 c -0.2693,-4.8884 -0.3546,-9.0232 -0.1893,-9.1884 0.1653,-0.1653 9.6962,-1.5228 21.1799,-3.0168 11.4838,-1.4939 20.8797,-2.9429 20.8797,-3.2197 0,-0.277 -9.4463,-1.764 -20.9918,-3.3047 -11.5454,-1.5405 -21.0764,-2.8858 -21.18,-2.9893 -0.4539,-0.4539 0.8466,-17.9644 1.3341,-17.9644 0.2988,0 13.1787,5.4202 28.6222,12.045 22.917,9.8307 27.7769,12.2034 26.4355,12.9066 -2.1483,1.126 -54.7442,23.6198 -55.229,23.6198 -0.2044,0 -0.592,-3.9997 -0.8613,-8.8881 z"
           id="path1285" />
      </g>
    </g>
  </g>
</svg>
