<?xml version="1.0" encoding="iso-8859-1"?>
<!-- Generator: Adobe Illustrator 18.0.0, SVG Export Plug-In . SVG Version: 6.00 Build 0)  -->
<!DOCTYPE svg PUBLIC "-//W3C//DTD SVG 1.1//EN" "http://www.w3.org/Graphics/SVG/1.1/DTD/svg11.dtd">
<svg version="1.1" id="Capa_1" xmlns="http://www.w3.org/2000/svg" xmlns:xlink="http://www.w3.org/1999/xlink" x="0px" y="0px"
	 viewBox="0 0 297.408 297.408" style="enable-background:new 0 0 297.408 297.408;" xml:space="preserve">
<g>
	<path d="M131.487,58.493c-7.11-4.116-16.212-1.656-20.329,5.491c-4.117,7.146-8.918,28.819-1.809,32.935
		c7.111,4.113,23.441-10.892,27.56-18.037C141.027,71.735,138.6,62.604,131.487,58.493z"/>
	<path d="M167.15,58.493c-7.111,4.111-9.539,13.242-5.421,20.389c4.118,7.146,20.448,22.15,27.56,18.037
		c7.109-4.115,2.307-25.789-1.81-32.935C183.362,56.837,174.262,54.377,167.15,58.493z"/>
	<path d="M242.146,102.704H239v-6.355c0-49.774-40.648-90.27-90.501-90.27C98.647,6.079,58,46.574,58,96.348v6.355h-2.476
		C25.134,102.704,0,126.532,0,156.923v80.274c0,6.356,4.951,11.713,11.261,12.479c11.674,1.416,19.458,4.273,27.592,7.299
		c8.72,3.242,18.653,6.917,33.278,8.691c4.166,0.506,7.982,0.751,11.616,0.751c8.533,0,14.46-1.379,19.676-2.595
		c4.459-1.04,8.318-1.938,13.957-1.938c2.611,0,5.415,0.184,8.565,0.567c10.942,1.327,15.616,3.705,21.531,6.716
		c6.819,3.471,14.55,7.405,29.906,9.268c4.166,0.506,7.959,0.751,11.598,0.751c8.543,0,14.48-1.378,19.717-2.593
		c4.491-1.042,8.37-1.941,14.032-1.941c2.617,0,5.421,0.185,8.57,0.567c10.826,1.313,15.446,3.66,21.294,6.63
		c6.76,3.434,14.403,7.315,29.621,9.236c0.801,0.16,1.603,0.249,2.478,0.243c6.936,0,12.562-5.618,12.57-12.555l0.146-121.402
		C297.408,126.981,272.618,102.704,242.146,102.704z M272.141,263.159c-2.959-1.083-5.431-2.337-8.162-3.726
		c-6.761-3.432-14.422-7.323-29.651-9.172c-4.164-0.505-7.958-0.75-11.598-0.75c-8.54,0-14.477,1.377-19.714,2.592
		c-4.492,1.042-8.371,1.942-14.035,1.942c-2.616,0-5.42-0.186-8.57-0.567c-10.942-1.328-15.614-3.705-21.528-6.716
		c-6.819-3.472-14.549-7.405-29.905-9.269c-4.166-0.505-7.956-0.75-11.59-0.75c-8.532,0-14.444,1.378-19.661,2.595
		c-4.46,1.039-8.313,1.938-13.953,1.938c-2.611,0-5.412-0.186-8.563-0.567c-11.674-1.417-19.632-4.274-27.766-7.299
		C41.121,231.059,34,228.48,25,226.563v-69.641c0-16.528,13.996-29.219,30.524-29.219h15.472c6.942,0,12.004-6.385,12.004-13.327
		V96.348c0-35.912,29.511-65.129,65.499-65.129c35.99,0,65.501,29.217,65.501,65.129v18.028c0,6.942,5.732,13.327,12.675,13.327
		h15.472c16.608,0,30.121,13.068,30.121,29.582L272.141,263.159z"/>
</g>
<g>
</g>
<g>
</g>
<g>
</g>
<g>
</g>
<g>
</g>
<g>
</g>
<g>
</g>
<g>
</g>
<g>
</g>
<g>
</g>
<g>
</g>
<g>
</g>
<g>
</g>
<g>
</g>
<g>
</g>
</svg>
